<?xml version="1.0" encoding="iso-8859-1"?>
<!-- Generator: Adobe Illustrator 18.0.0, SVG Export Plug-In . SVG Version: 6.00 Build 0)  -->
<!DOCTYPE svg PUBLIC "-//W3C//DTD SVG 1.1//EN" "http://www.w3.org/Graphics/SVG/1.1/DTD/svg11.dtd">
<svg version="1.1" id="Capa_1" xmlns="http://www.w3.org/2000/svg" xmlns:xlink="http://www.w3.org/1999/xlink" x="0px" y="0px"
	 viewBox="0 0 91.822 91.822" style="enable-background:new 0 0 91.822 91.822;" xml:space="preserve">
<g>
	<path style="fill-rule:evenodd;clip-rule:evenodd;fill:#2C8145;" d="M45.911,91.822c25.287,0,45.911-20.624,45.911-45.911
		S71.198,0,45.911,0S0,20.624,0,45.911S20.624,91.822,45.911,91.822z"/>
	<g>
		<path style="fill-rule:evenodd;clip-rule:evenodd;fill:#D56C2B;" d="M25.531,87.059c-6.659-29.027-9.632-70.597,19.74-70.597
			c28.966,0,28.429,40.018,21.849,70.176c-6.344,3.311-13.557,5.185-21.209,5.185C38.591,91.822,31.672,90.106,25.531,87.059z"/>
		<path style="fill-rule:evenodd;clip-rule:evenodd;fill:#4E6078;" d="M30.102,83.967l-0.705,4.794
			c-4.315-1.665-8.317-3.961-11.89-6.777C20.177,75.024,31.327,75.636,30.102,83.967z"/>
		<path style="fill-rule:evenodd;clip-rule:evenodd;fill:#FBD9BD;" d="M61.665,83.967l0.707,4.813
			c4.319-1.659,8.324-3.95,11.901-6.763C71.628,75.021,60.438,75.622,61.665,83.967z"/>
		<path style="fill-rule:evenodd;clip-rule:evenodd;fill:#FBD9BD;" d="M66.557,77.183l-1.394,10.418
			c-5.855,2.708-12.376,4.222-19.252,4.222c-6.909,0-13.461-1.529-19.339-4.263l-1.206-10.377H66.557z"/>
		<path style="fill-rule:evenodd;clip-rule:evenodd;fill:#4E6078;" d="M25.366,77.183c6.951,9.454,20.578,14.025,40.674,10.002
			c-6.078,2.97-12.908,4.638-20.129,4.638c-7.475,0-14.531-1.787-20.768-4.956C24.946,84.054,25.002,80.848,25.366,77.183z"/>
		<path style="fill-rule:evenodd;clip-rule:evenodd;fill:#FBD9BD;" d="M53.949,56.252V80.03c-4.394,5.775-11.583,5.576-15.978,0
			V56.252C37.972,45.684,53.949,45.684,53.949,56.252z"/>
		<path style="fill-rule:evenodd;clip-rule:evenodd;fill:#ECC2A0;" d="M53.949,60.283v13.104c-3.022,2.365-5.937,3.689-7.988,3.689
			s-4.966-1.324-7.989-3.689V60.283C37.972,49.716,53.949,49.716,53.949,60.283z"/>
		<path style="fill-rule:evenodd;clip-rule:evenodd;fill:#FBD9BD;" d="M45.962,73.822c-5.202,0-16.19-8.178-19.587-19.89
			c-3.431-11.826,3.029-28.789,19.587-28.789c16.557,0,23.016,16.962,19.585,28.789C62.15,65.645,51.162,73.822,45.962,73.822z"/>
		<path style="fill-rule:evenodd;clip-rule:evenodd;fill:#FF386A;" d="M37.669,59.866c3.508-2.566,7.17-1.048,8.393-1.048
			c1.225,0,4.684-1.519,8.191,1.048C52.507,66.921,40.312,67.099,37.669,59.866z"/>
		<path style="fill-rule:evenodd;clip-rule:evenodd;fill:#A21F40;" d="M37.774,59.828c3.256-1.147,6.135,1.101,8.183,1.101
			c2.049,0,4.935-3.02,8.191-0.984C50.332,63.833,41.616,63.622,37.774,59.828z"/>
		<path style="fill-rule:evenodd;clip-rule:evenodd;fill:#FFFFFF;" d="M37.669,59.828c3.508-1.446,6.089-0.397,8.138-0.397
			c2.049,0,4.937-1.049,8.446,0.397C50.438,62.007,41.511,61.934,37.669,59.828z"/>
		<path style="fill-rule:evenodd;clip-rule:evenodd;fill:#FF386A;" d="M37.687,59.842c3.491-2.533,6.489-0.775,8.534-0.775
			c2.045,0,4.508-1.767,8.016,0.8c-0.013,0.035-0.027,0.07-0.041,0.105C49.724,59.892,42.404,59.846,37.687,59.842z"/>
		
			<ellipse transform="matrix(-0.3947 -0.9188 0.9188 -0.3947 -13.8454 94.9503)" style="fill-rule:evenodd;clip-rule:evenodd;fill:#FBD9BD;" cx="24.353" cy="52.036" rx="5.702" ry="3.297"/>
		
			<ellipse transform="matrix(0.3946 -0.9188 0.9188 0.3946 -7.8447 92.1645)" style="fill-rule:evenodd;clip-rule:evenodd;fill:#FBD9BD;" cx="66.022" cy="52.036" rx="5.701" ry="3.298"/>
		<path style="fill-rule:evenodd;clip-rule:evenodd;fill:#D56C2B;" d="M65.252,50.716c9.759-27.484-9.072-29.232-20.143-29.232
			c-12.47,0-27.03,6.359-18.976,29.546c11.886-0.585,22.335-7.208,32.838-21.13C60.76,36.972,61.967,46.164,65.252,50.716z"/>
		<path style="opacity:0.2;fill-rule:evenodd;clip-rule:evenodd;" d="M74.257,82.03c-0.978-2.599-3.133-4.152-5.396-4.652
			c2.584-15.893,3.05-33.019-1.575-45.052c-0.384-1.339-0.925-2.514-1.593-3.544c-3.841-7.356-10.132-12.106-19.782-12.313v75.352
			C56.608,91.822,66.451,88.165,74.257,82.03z"/>
	</g>
</g>
<g>
</g>
<g>
</g>
<g>
</g>
<g>
</g>
<g>
</g>
<g>
</g>
<g>
</g>
<g>
</g>
<g>
</g>
<g>
</g>
<g>
</g>
<g>
</g>
<g>
</g>
<g>
</g>
<g>
</g>
</svg>
